<?xml version="1.0" encoding="utf-8"?>
<svg version="1.1" xmlns:xlink="http://www.w3.org/1999/xlink" width="20px" height="27px" xmlns="http://www.w3.org/2000/svg">
  <defs>
    <mask fill="white" id="clip1287">
      <path d="M 19.5022172307692 4  L 5 4  L 5 26.5793633470588  L 19.5022172307692 26.5793633470588  L 19.5022172307692 4  Z M 16.3347963846154 0.420193806088264  L 0.497692307692319 0.420193806088264  L 0.497692307692319 2.38213152529414  L 16.3347963846154 2.38213152529414  L 16.3347963846154 0.420193806088264  Z M 4 3.69009  L 0.497692307692319 3.69009  L 0.497692307692319 26.5793633470588  L 4 26.5793633470588  L 4 3.69009  Z M 7.73821835384615 20.7395331088235  C 7.71361856153845 20.3783503764706  7.97729699999999 20.064966617647  8.32716061538463 20.0395709735294  C 8.33705746153845 20.0393317058824  8.34695838461539 20.0393317058824  8.35685523076921 20.0395709735294  C 8.37664069230769 20.0386125529412  8.39645884615385 20.0386125529412  8.4162443076923 20.0395709735294  L 16.0180543076923 20.0395709735294  C 16.2465114615385 20.0362355205882  16.4590108461538 20.1601486058823  16.5741822307692 20.3638615411764  C 16.6893536923077 20.5675744764706  16.6893536923077 20.8195259294118  16.5741822307692 21.0232388647059  C 16.4590108461538 21.2269518  16.2465114615385 21.3508649647059  16.0180543076923 21.3475294323529  L 8.4162443076923 21.3475294323529  C 8.0663807076923 21.3729250764706  7.76281813846154 21.1007158411765  7.73821835384615 20.7395331088235  Z M 7.73821835384615 23.0284604911765  C 7.71361856153845 22.6672776794118  7.97729699999999 22.353894  8.32716061538463 22.3284982764706  C 8.33705746153845 22.3282590088235  8.34695838461539 22.3282590088235  8.35685523076921 22.3284982764706  C 8.37664069230769 22.3275399352941  8.39645884615385 22.3275399352941  8.4162443076923 22.3284982764706  L 16.0180543076923 22.3284982764706  C 16.2465114615385 22.3251628235294  16.4590108461538 22.4490759088235  16.5741822307692 22.6527888441177  C 16.6893536923077 22.8565017794118  16.6893536923077 23.1084533117647  16.5741822307692 23.3121662470588  C 16.4590108461538 23.5158791823529  16.2465114615385 23.6397922676471  16.0180543076923 23.6364568147059  L 8.4162443076923 23.6364568147059  C 8.0663807076923 23.6618524588235  7.76281813846154 23.3896432235294  7.73821835384615 23.0284604911765  Z M 8.4162443076923 11.8648304470588  L 8.4162443076923 7.28697580941179  L 16.0180543076923 7.28697580941179  L 16.0180543076923 11.8648304470588  L 8.4162443076923 11.8648304470588  Z M 7.73821835384615 18.4506058058823  C 7.71361856153845 18.0894230735294  7.97729699999999 17.7760393147059  8.32716061538463 17.7506436705883  C 8.33705746153845 17.7504044029412  8.34695838461539 17.7504044029412  8.35685523076921 17.7506436705883  C 8.37664069230769 17.74968525  8.39645884615385 17.74968525  8.4162443076923 17.7506436705883  L 16.0180543076923 17.7506436705883  C 16.2465114615385 17.7473081382353  16.4590108461538 17.8712212235294  16.5741822307692 18.0749341588235  C 16.6893536923077 18.2786470941176  16.6893536923077 18.5305986264706  16.5741822307692 18.7343115617647  C 16.4590108461538 18.9380244970588  16.2465114615385 19.0619375823529  16.0180543076923 19.0586021294118  L 8.4162443076923 19.0586021294118  C 8.0663807076923 19.0839977735294  7.76281813846154 18.8117885382353  7.73821835384615 18.4506058058823  Z " fill-rule="evenodd" />
    </mask>
  </defs>
  <g transform="matrix(1 0 0 1 -45 -179 )">
    <path d="M 19.5022172307692 4  L 5 4  L 5 26.5793633470588  L 19.5022172307692 26.5793633470588  L 19.5022172307692 4  Z M 16.3347963846154 0.420193806088264  L 0.497692307692319 0.420193806088264  L 0.497692307692319 2.38213152529414  L 16.3347963846154 2.38213152529414  L 16.3347963846154 0.420193806088264  Z M 4 3.69009  L 0.497692307692319 3.69009  L 0.497692307692319 26.5793633470588  L 4 26.5793633470588  L 4 3.69009  Z M 7.73821835384615 20.7395331088235  C 7.71361856153845 20.3783503764706  7.97729699999999 20.064966617647  8.32716061538463 20.0395709735294  C 8.33705746153845 20.0393317058824  8.34695838461539 20.0393317058824  8.35685523076921 20.0395709735294  C 8.37664069230769 20.0386125529412  8.39645884615385 20.0386125529412  8.4162443076923 20.0395709735294  L 16.0180543076923 20.0395709735294  C 16.2465114615385 20.0362355205882  16.4590108461538 20.1601486058823  16.5741822307692 20.3638615411764  C 16.6893536923077 20.5675744764706  16.6893536923077 20.8195259294118  16.5741822307692 21.0232388647059  C 16.4590108461538 21.2269518  16.2465114615385 21.3508649647059  16.0180543076923 21.3475294323529  L 8.4162443076923 21.3475294323529  C 8.0663807076923 21.3729250764706  7.76281813846154 21.1007158411765  7.73821835384615 20.7395331088235  Z M 7.73821835384615 23.0284604911765  C 7.71361856153845 22.6672776794118  7.97729699999999 22.353894  8.32716061538463 22.3284982764706  C 8.33705746153845 22.3282590088235  8.34695838461539 22.3282590088235  8.35685523076921 22.3284982764706  C 8.37664069230769 22.3275399352941  8.39645884615385 22.3275399352941  8.4162443076923 22.3284982764706  L 16.0180543076923 22.3284982764706  C 16.2465114615385 22.3251628235294  16.4590108461538 22.4490759088235  16.5741822307692 22.6527888441177  C 16.6893536923077 22.8565017794118  16.6893536923077 23.1084533117647  16.5741822307692 23.3121662470588  C 16.4590108461538 23.5158791823529  16.2465114615385 23.6397922676471  16.0180543076923 23.6364568147059  L 8.4162443076923 23.6364568147059  C 8.0663807076923 23.6618524588235  7.76281813846154 23.3896432235294  7.73821835384615 23.0284604911765  Z M 8.4162443076923 11.8648304470588  L 8.4162443076923 7.28697580941179  L 16.0180543076923 7.28697580941179  L 16.0180543076923 11.8648304470588  L 8.4162443076923 11.8648304470588  Z M 7.73821835384615 18.4506058058823  C 7.71361856153845 18.0894230735294  7.97729699999999 17.7760393147059  8.32716061538463 17.7506436705883  C 8.33705746153845 17.7504044029412  8.34695838461539 17.7504044029412  8.35685523076921 17.7506436705883  C 8.37664069230769 17.74968525  8.39645884615385 17.74968525  8.4162443076923 17.7506436705883  L 16.0180543076923 17.7506436705883  C 16.2465114615385 17.7473081382353  16.4590108461538 17.8712212235294  16.5741822307692 18.0749341588235  C 16.6893536923077 18.2786470941176  16.6893536923077 18.5305986264706  16.5741822307692 18.7343115617647  C 16.4590108461538 18.9380244970588  16.2465114615385 19.0619375823529  16.0180543076923 19.0586021294118  L 8.4162443076923 19.0586021294118  C 8.0663807076923 19.0839977735294  7.76281813846154 18.8117885382353  7.73821835384615 18.4506058058823  Z " fill-rule="nonzero" fill="#ffffff" stroke="none" fill-opacity="0" transform="matrix(1 0 0 1 45 179 )" />
    <path d="M 19.5022172307692 4  L 5 4  L 5 26.5793633470588  L 19.5022172307692 26.5793633470588  L 19.5022172307692 4  Z " stroke-width="2" stroke="#00c8aa" fill="none" transform="matrix(1 0 0 1 45 179 )" mask="url(#clip1287)" />
    <path d="M 16.3347963846154 0.420193806088264  L 0.497692307692319 0.420193806088264  L 0.497692307692319 2.38213152529414  L 16.3347963846154 2.38213152529414  L 16.3347963846154 0.420193806088264  Z " stroke-width="2" stroke="#00c8aa" fill="none" transform="matrix(1 0 0 1 45 179 )" mask="url(#clip1287)" />
    <path d="M 4 3.69009  L 0.497692307692319 3.69009  L 0.497692307692319 26.5793633470588  L 4 26.5793633470588  L 4 3.69009  Z " stroke-width="2" stroke="#00c8aa" fill="none" transform="matrix(1 0 0 1 45 179 )" mask="url(#clip1287)" />
    <path d="M 7.73821835384615 20.7395331088235  C 7.71361856153845 20.3783503764706  7.97729699999999 20.064966617647  8.32716061538463 20.0395709735294  C 8.33705746153845 20.0393317058824  8.34695838461539 20.0393317058824  8.35685523076921 20.0395709735294  C 8.37664069230769 20.0386125529412  8.39645884615385 20.0386125529412  8.4162443076923 20.0395709735294  L 16.0180543076923 20.0395709735294  C 16.2465114615385 20.0362355205882  16.4590108461538 20.1601486058823  16.5741822307692 20.3638615411764  C 16.6893536923077 20.5675744764706  16.6893536923077 20.8195259294118  16.5741822307692 21.0232388647059  C 16.4590108461538 21.2269518  16.2465114615385 21.3508649647059  16.0180543076923 21.3475294323529  L 8.4162443076923 21.3475294323529  C 8.0663807076923 21.3729250764706  7.76281813846154 21.1007158411765  7.73821835384615 20.7395331088235  Z " stroke-width="2" stroke="#00c8aa" fill="none" transform="matrix(1 0 0 1 45 179 )" mask="url(#clip1287)" />
    <path d="M 7.73821835384615 23.0284604911765  C 7.71361856153845 22.6672776794118  7.97729699999999 22.353894  8.32716061538463 22.3284982764706  C 8.33705746153845 22.3282590088235  8.34695838461539 22.3282590088235  8.35685523076921 22.3284982764706  C 8.37664069230769 22.3275399352941  8.39645884615385 22.3275399352941  8.4162443076923 22.3284982764706  L 16.0180543076923 22.3284982764706  C 16.2465114615385 22.3251628235294  16.4590108461538 22.4490759088235  16.5741822307692 22.6527888441177  C 16.6893536923077 22.8565017794118  16.6893536923077 23.1084533117647  16.5741822307692 23.3121662470588  C 16.4590108461538 23.5158791823529  16.2465114615385 23.6397922676471  16.0180543076923 23.6364568147059  L 8.4162443076923 23.6364568147059  C 8.0663807076923 23.6618524588235  7.76281813846154 23.3896432235294  7.73821835384615 23.0284604911765  Z " stroke-width="2" stroke="#00c8aa" fill="none" transform="matrix(1 0 0 1 45 179 )" mask="url(#clip1287)" />
    <path d="M 8.4162443076923 11.8648304470588  L 8.4162443076923 7.28697580941179  L 16.0180543076923 7.28697580941179  L 16.0180543076923 11.8648304470588  L 8.4162443076923 11.8648304470588  Z " stroke-width="2" stroke="#00c8aa" fill="none" transform="matrix(1 0 0 1 45 179 )" mask="url(#clip1287)" />
    <path d="M 7.73821835384615 18.4506058058823  C 7.71361856153845 18.0894230735294  7.97729699999999 17.7760393147059  8.32716061538463 17.7506436705883  C 8.33705746153845 17.7504044029412  8.34695838461539 17.7504044029412  8.35685523076921 17.7506436705883  C 8.37664069230769 17.74968525  8.39645884615385 17.74968525  8.4162443076923 17.7506436705883  L 16.0180543076923 17.7506436705883  C 16.2465114615385 17.7473081382353  16.4590108461538 17.8712212235294  16.5741822307692 18.0749341588235  C 16.6893536923077 18.2786470941176  16.6893536923077 18.5305986264706  16.5741822307692 18.7343115617647  C 16.4590108461538 18.9380244970588  16.2465114615385 19.0619375823529  16.0180543076923 19.0586021294118  L 8.4162443076923 19.0586021294118  C 8.0663807076923 19.0839977735294  7.76281813846154 18.8117885382353  7.73821835384615 18.4506058058823  Z " stroke-width="2" stroke="#00c8aa" fill="none" transform="matrix(1 0 0 1 45 179 )" mask="url(#clip1287)" />
  </g>
</svg>