<?xml version="1.0" encoding="utf-8"?>
<svg version="1.1" xmlns:xlink="http://www.w3.org/1999/xlink" width="28px" height="28px" xmlns="http://www.w3.org/2000/svg">
  <g transform="matrix(1 0 0 1 -287 -46 )">
    <path d="M 5.57567286814098 2.81941222177816  C 11.7495722789645 -1.83325530765567  20.5266758894334 -0.599470902037196  25.1805877782218 5.57567286814098  C 29.8332553076557 11.7495722789645  28.5994709020372 20.5266758894334  22.424327131859 25.1805877782218  C 16.2504277210355 29.8332553076557  7.47332411056664 28.5994709020372  2.81941222177816 22.424327131859  C -1.83325530765567 16.2504277210355  -0.599470902037196 7.47332411056664  5.57567286814098 2.81941222177816  Z M 22.0190772252558 11.0045250521003  C 22.0190772252558 10.1264174019797  21.7332741330962 9.27216684884353  21.2048528861629 8.57085092075562  C 20.440740928587 7.55665325945066  19.2446441265974 6.96023526797604  17.9748157996543 6.96023526797604  C 17.0967081570065 6.96023526797604  16.242457610725 7.24603835527749  15.5411416857518 7.77445959392667  L 12.3120236916478 10.2084306205564  L 17.17934356523 16.6679109954629  L 20.408461559334 14.2345621485105  C 21.4226592283716 13.4704501915775  22.0190772252558 12.2743533848325  22.0190772252558 11.0045250521003  Z M 7.29226952368172 19.0552184642615  L 7.29164734400439 19.0545962845842  C 8.05575930158037 20.0687939458891  9.25185610356995 20.6652119373637  10.521684430513 20.6652119373637  C 11.3997920731609 20.6652119373637  12.2540426194423 20.3794088500623  12.9553585444155 19.8509876114131  L 16.1850987455406 17.4170165847834  L 11.3184010516358 10.9575362098769  L 8.08866085051067 13.3915072365066  C 7.07446318147306 14.1556191934396  6.47804518458889 15.3517160001846  6.47804518458889 16.6215443329168  C 6.47804518458889 17.4996519830374  6.76384827674842 18.3539025361736  7.29226952368172 19.0552184642615  Z M 14.7914138894103 17.2210296582987  L 11.1217919454738 12.3512210660072  L 8.68719873916673 14.1866542313247  C 7.90246651239324 14.7607849506165  7.43866259518927 15.6747983381923  7.43866259518927 16.6471309718993  C 7.43866259518927 18.3308735285711  8.80360562541387 19.6958165587957  10.4873481820857 19.6958165587957  C 11.1640608870293 19.6958165587957  11.8215404053276 19.4706668764386  12.3561985034259 19.0558406439388  L 14.7914138894103 17.2210296582987  Z " fill-rule="nonzero" fill="#00c8aa" stroke="none" transform="matrix(1 0 0 1 287 46 )" />
  </g>
</svg>