<?xml version="1.0" encoding="utf-8"?>
<svg version="1.1" xmlns:xlink="http://www.w3.org/1999/xlink" width="22px" height="24px" xmlns="http://www.w3.org/2000/svg">
  <g transform="matrix(1 0 0 1 -51 -510 )">
    <path d="M 10.12575 16.5159166666667  C 11.4190795432796 17.5068982654612  12.9697874057485 18.1056271698893  14.5935 18.2409166666666  C 15.1462027499686 16.8688306907661  16.4770741552841 15.9701412966295  17.9562970103962 15.9701412966295  C 19.9561058968881 15.9701412966295  21.5782330714345 17.5894857278527  21.5816666666666 19.5892916666667  C 21.5816725124273 19.5919488448061  21.5816754353103 19.5946060285726  21.5816754353103 19.5972632131424  C 21.5816754353103 21.5984439922896  19.9593978811243 23.2207215464757  17.958217101977 23.2207215464757  C 16.1924721633572 23.2207215464757  14.6838334514242 21.9479476221298  14.3865 20.2074166666667  C 13.3207397000532 20.1140427029328  12.2755520740004 19.8580783863484  11.28725 19.4484166666667  C 9.73029120369176 18.8021157790619  8.35078082871541 17.792293153454  7.26416666666665 16.5034583333333  C 3.42891666666668 15.8623333333333  0.498333333333335 12.75925  0.498333333333335 8.99299999999999  L 0.498333333333335 0.153333333333364  L 4.78495833333332 0.153333333333364  C 5.33090331447335 0.153333333333364  5.77347916666668 0.595909185526637  5.77347916666668 1.14185416666663  C 5.77347916666668 1.68779914780669  5.33090331447335 2.13037500000002  4.78495833333332 2.13037500000002  L 2.47537499999999 2.13037500000002  L 2.47537499999999 8.99299999999999  C 2.47537499999999 12.0960833333334  5.25933333333333 14.648125  8.73329166666667 14.648125  C 12.2091666666667 14.648125  14.993125 12.0960833333334  14.993125 8.99299999999999  L 14.993125 2.12941666666666  L 12.70175 2.12941666666666  C 12.1560696553026 2.12941666666666  11.7137083333333 1.6870553446974  11.7137083333333 1.14137499999998  C 11.7137083333333 0.595694655302566  12.1560696553026 0.153333333333364  12.70175 0.153333333333364  L 16.9692083333333 0.153333333333364  L 16.9692083333333 8.99299999999999  C 16.9692083333333 12.785125  13.998375 15.9045  10.1267083333333 16.5159166666667  Z M 17.9591667360983 21.2366666666667  C 18.8689868258508 21.2366666666667  19.6065417360983 20.4991117564192  19.6065417360983 19.5892916666667  C 19.6065417360983 18.6794715769142  18.8689868258508 17.9419166666667  17.9591667360983 17.9419166666667  C 17.0493466463458 17.9419166666667  16.3117917360983 18.6794715769142  16.3117917360983 19.5892916666667  C 16.3117917360983 20.4991117564192  17.0493466463458 21.2366666666667  17.9591667360983 21.2366666666667  Z " fill-rule="nonzero" fill="#00c8aa" stroke="none" transform="matrix(1 0 0 1 51 510 )" />
  </g>
</svg>