<?xml version="1.0" encoding="utf-8"?>
<svg version="1.1" xmlns:xlink="http://www.w3.org/1999/xlink" width="47px" height="39px" xmlns="http://www.w3.org/2000/svg">
  <g transform="matrix(1 0 0 1 -30 -173 )">
    <path d="M 35.25 27.3  C 35.25 25.116  36.9733333333333 23.4  39.1666666666667 23.4  L 43.0833333333333 23.4  C 45.2766666666666 23.4  47 21.684  47 19.5  C 47 17.316  45.2766666666666 15.6  43.0833333333333 15.6  L 37.2083333333333 15.6  C 35.015 15.6  33.2916666666667 13.884  33.2916666666667 11.7  C 33.2916666666667 9.51600000000002  35.015 7.80000000000001  37.2083333333333 7.80000000000001  C 39.4016666666667 7.80000000000001  41.125 6.084  41.125 3.89999999999998  C 41.125 1.71600000000001  39.4016666666667 0  37.2083333333333 0  L 9.79166666666666 0  C 7.59833333333333 0  5.875 1.71600000000001  5.875 3.89999999999998  C 5.875 6.084  7.59833333333333 7.80000000000001  9.79166666666666 7.80000000000001  L 11.75 7.80000000000001  C 13.9433333333333 7.80000000000001  15.6666666666667 9.51600000000002  15.6666666666667 11.7  C 15.6666666666667 13.884  13.9433333333333 15.6  11.75 15.6  L 3.91666666666666 15.6  C 1.72333333333333 15.6  0 17.316  0 19.5  C 0 21.684  1.72333333333333 23.4  3.91666666666666 23  L 15.6666666666667 23  C 17.86 23.4  19.5833333333333 25.116  19.5833333333333 27.3  C 19.5833333333333 29.484  17.86 31.2  15.6666666666667 31.2  L 9.79166666666666 31.2  C 7.59833333333333 31.2  5.875 32.916  5.875 35.1  C 5.875 37.284  7.59833333333333 39  9.79166666666666 39  L 41.125 39  C 43.3183333333333 39  45.0416666666667 37.284  45.0416666666667 35.1  C 45.0416666666667 32.916  43.3183333333333 31.2  41.125 31.2  L 39.1666666666667 31.2  C 36.9733333333333 31.2  35.25 29.484  35.25 27.3  Z " fill-rule="nonzero" fill="#00c8aa" stroke="none" fill-opacity="0.0470588235294118" transform="matrix(1 0 0 1 30 173 )" />
  </g>
</svg>