<?xml version="1.0" encoding="utf-8"?>
<svg version="1.1" xmlns:xlink="http://www.w3.org/1999/xlink" width="28px" height="26px" xmlns="http://www.w3.org/2000/svg">
  <g transform="matrix(1 0 0 1 -59 -46 )">
    <path d="M 26 21  L 6.60666666666667 21  L 1 26  L 1 1.33333333333333  C 0.666666666666667 0.596953666892276  1.26362033355894 0  2 0  L 26 0  C 26.7363796664411 0  27.3333333333333 0.596953666892276  27 1.33333333333333  L 27 20  C 27.3333333333333 20.7363796664411  26.7363796664411 21.3333333333333  26 21  Z M 12.6666666666667 5.33333333333333  L 12.6666666666667 9.33333333333333  L 8.66666666666667 9.33333333333333  L 8.66666666666667 12  L 12.6666666666667 12  L 12.6666666666667 16  L 15.3333333333333 16  L 15.3333333333333 12  L 19.3333333333333 12  L 19.3333333333333 9.33333333333333  L 15.3333333333333 9.33333333333333  L 15.3333333333333 5.33333333333333  L 12.6666666666667 5.33333333333333  Z " fill-rule="nonzero" fill="#00c8aa" stroke="none" transform="matrix(1 0 0 1 59 46 )" />
  </g>
</svg>