<?xml version="1.0" encoding="utf-8"?>
<svg version="1.1" xmlns:xlink="http://www.w3.org/1999/xlink" width="28px" height="28px" xmlns="http://www.w3.org/2000/svg">
  <g transform="matrix(1 0 0 1 -220 -179 )">
    <path d="M 8.81499371052631 0  L 19.1850062894737 0  C 20.5070176315789 0  21.5957328815789 0.8813307890625  21.7570960219298 2.02065426171875  L 24.0803365833333 2.02065426171875  C 26.1061245789474 2.02065426171875  27.7741918508772 3.386803546875  27.9219460394737 5.13041864453125  L 28 5.381485375  L 28 24.6305114179688  C 27.9336108640351 26.4087564179688  26.3569179078947 27.8545544648438  24.3680684517544 27.9826850625  L 24.0803365833333 28  L 3.91966341666667 28  C 1.89387542105263 27.9930740195313  0.225808149122807 26.6251932460938  0.0780539605263161 24.8833096367188  L 0 24.6305114179688  L 0 5.381485375  C 0.0663891359649126 3.60497186328125  1.64308209210526 2.157442328125  3.63193154824561 2.02931173046875  L 3.91966341666667 2.02065426171875  L 6.24290397807018 2.02065426171875  C 6.40645217911812 0.866270506873029  7.50856611578753 0.000440985091892645  8.81499371052631 0  Z M 8.81499371052631 6  C 7.49298236842105 5.77107166015625  6.40426711842105 4.88974087109375  6.24290397807018 3.7521489140625  L 3.91966341666667 3.7521489140625  C 2.93593143421053 3.7521489140625  2.13300395614035 4.38587594921875  2.02413243421053 5.19275246875  L 2 5.38321686328125  L 2 24.6305114179688  C 2.01052348245614 25.4616288554688  2.74346213596491 26.1542267109375  3.69608796052632 26.2494588945313  L 3.91966341666667 26  L 24.0803365833333 26  C 25.0640685657895 26.2615793671875  25.8669960438597 25.6278523320313  25.9758675657895 24.8192443242188  L 26 24.6305114179688  L 26 5.381485375  C 25.9894765175439 4.5503679375  25.2565378640351 3.85777008203125  24.3039120394737 3.76253787109375  L 24.0803365833333 3.7521489140625  L 21.7570960219298 3.7521489140625  C 21.5926506383396 4.90584557206394  20.4907812059873 5.77074123730081  19.1850062894737 6  L 8.81499371052631 6  Z M 13.8250279078947 9.53707253515625  L 14 9.52322057421875  C 14.5368578671166 9.52322057421875  14.9720671578947 9.91082884881801  14.9720671578947 10.3889678867188  L 14.9720671578947 14.71770453125  L 19.8324030394737 14.71770453125  C 19.832999581415 14.7177035531055  19.8335961242397 14.7177030640329  19.834192667192 14.7177030640329  C 20.3710505343086 14.7177030640329  20.8062598250867 15.1053113386322  20.8062598250867 15.5834503765329  C 20.8062598250867 16.0020951422734  20.4699123052506 16.3607619106798  20.0073751315789 16.4353472226563  L 19.8324030394737 16.4491991835937  L 14.9720671578947 16.4491991835937  L 14.9720671578947 20.7779358007813  C 14.9722236904956 21.1960784464548  14.6367971988209 21.5545655209387  14.1749720921053 21.6298311796875  L 14 21.643683140625  C 13.4631421328834 21.643683140625  13.0279328421053 21.2560748660257  13.0279328421053 20.777935828125  L 13.0279328421053 16.4491991835937  L 8.16759696052632 16.4491991835938  C 8.167000418585 16.4492001617383  8.1664038757603 16.4492006508108  8.165807332808 16.4492006508108  C 7.62894946569137 16.4492006508108  7.19374017491326 16.0615923762116  7.19374017491326 15.5834533383108  C 7.19374017491326 15.1648085725704  7.53008769474939 14.8061418041639  7.99262486842105 14.7315564921875  L 8.16759696052632 14.71770453125  L 13.0279328421053 14.71770453125  L 13.0279328421053 10.3889679140625  C 13.0277763095044 9.970825268389  13.3632028011791 9.61233819390509  13.8250279078947 9.53707253515625  Z M 19.8324030394737 2.3080823828125  C 19.8324030394737 1.98964177233506  19.5425536415887 1.73149465234375  19.1850062894737 2  L 8.81499371052631 2  C 8.4574463584113 1.73149465234375  8.16759696052632 1.98964177233506  8.16759696052632 2.3080823828125  L 8.16759696052632 3.4629893046875  C 8.16759696052632 3.78158432421875  8.45921711403509 4.03957703515625  8.81499371052631 4  L 19.1850062894737 4  C 19.5427270131579 4.0395770078125  19.8324030394737 3.781584296875  19.8324030394737 3.4629893046875  L 19.8324030394737 2.3080823828125  Z " fill-rule="nonzero" fill="#00c8aa" stroke="none" transform="matrix(1 0 0 1 220 179 )" />
  </g>
</svg>