<?xml version="1.0" encoding="utf-8"?>
<svg version="1.1" xmlns:xlink="http://www.w3.org/1999/xlink" width="28px" height="28px" xmlns="http://www.w3.org/2000/svg">
  <g transform="matrix(1 0 0 1 -130 -179 )">
    <path d="M 27.6227 14.8511066666667  C 27.9618733333333 14.51324  27.9650466666667 13.9650466666667  27.6297933333333 13.62326  L 24.5619266666667 10.4948666666667  C 24.2248533333333 10.1511666666667  23.67302 10.1458466666667  23.3292733333333 10.4828266666667  C 22.9855733333333 10.8199  22.9802066666667 11.37178  23.3172333333333 11.71548  L 25.7796 14.22638  L 22.4052266666667 17.5876866666667  C 22.2414266666667 17.7509266666667  22.1491666666667 17.9725  22.1487933333333 18.2037333333333  L 22.13512 26.1358066666667  L 14 26.1358066666667  L 5.86488 26.1358066666667  L 5.85120666666667 18.2037333333333  C 5.85078666666666 17.9725  5.75857333333333 17.7509266666667  5.59472666666667 17.5877333333333  L 2.2204 14.22638  L 14.0003266666667 2.21433333333334  L 20.8832866666667 9.22562666666667  C 21.0539933333333 9.39946  21.27958 9.48663333333334  21.5054 9.48663333333334  C 21.72576 9.48663333333334  21.9463066666667 9.40356666666667  22.11594 9.23696666666667  C 22.4595 8.89970666666667  22.4645866666667 8.34782666666667  22.1273733333333 8.00431333333334  L 14.62202 0.3591  C 14.6200133333333 0.357093333333334  14.6178666666667 0.355413333333333  14.61586 0.353406666666667  C 14.6139 0.351446666666667  14.6122666666667 0.349346666666667  14.6103066666667 0.347433333333334  C 14.6018133333333 0.339080000000001  14.59262 0.331893333333334  14.5838466666667 0.324006666666667  C 14.57246 0.313646666666667  14.5613066666667 0.3031  14.5495 0.293533333333334  C 14.5384866666667 0.284573333333335  14.5270066666667 0.276500000000001  14.5155733333333 0.268146666666668  C 14.50344 0.259233333333334  14.4914933333333 0.249993333333335  14.4790333333333 0.241826666666668  C 14.4671333333333 0.233986666666668  14.4548133333333 0.227080000000001  14.4426333333333 0.219846666666668  C 14.43008 0.212426666666668  14.4177133333333 0.204773333333334  14.4049266666667 0.198053333333335  C 14.3921866666667 0.191333333333334  14.3790733333333 0.185593333333335  14.3661 0.179573333333335  C 14.35336 0.173693333333335  14.3407133333333 0.167486666666668  14.3277866666667 0.162260000000001  C 14.3143466666667 0.156800000000001  14.30058 0.152320000000001  14.2869533333333 0.147560000000001  C 14.2740266666667 0.143033333333335  14.2611933333333 0.138273333333335  14.24808 0.134353333333334  C 14.2341733333333 0.130246666666667  14.2199866666667 0.127073333333334  14.20594 0.123666666666668  C 14.1928266666667 0.120493333333334  14.1797133333333 0.116993333333334  14.16646 0.114426666666667  C 14.15232 0.111673333333333  14.1380866666667 0.109900000000001  14.1238066666667 0.107893333333333  C 14.1103666666667 0.10598  14.0969733333333 0.10374  14.08344 0.102433333333334  C 14.0693466666667 0.101080000000001  14.0552533333333 0.100706666666667  14.0411133333333 0.100053333333334  C 14.0273466666667 0.0994000000000005  14.0136266666667 0.0984666666666672  13.9998133333333 0.0984666666666672  C 13.9859533333333 0.0984666666666672  13.97214 0.0994000000000005  13.9582333333333 0.100053333333334  C 13.9441866666667 0.100753333333334  13.93014 0.101126666666667  13.91614 0.102480000000001  C 13.9025133333333 0.103786666666668  13.8890733333333 0.106026666666668  13.87554 0.10794  C 13.8613533333333 0.109993333333334  13.8472133333333 0.111766666666667  13.83312 0.11452  C 13.81982 0.117086666666667  13.8067066666667 0.120586666666667  13.7935 0.123806666666666  C 13.7794533333333 0.127213333333333  13.76536 0.130386666666666  13.7515 0.134493333333333  C 13.7383866666667 0.138366666666666  13.7255533333333 0.143173333333332  13.7126266666667 0.1477  C 13.6989533333333 0.15246  13.6852333333333 0.15694  13.6717933333333 0.1624  C 13.6588666666667 0.167673333333333  13.6462666666667 0.173833333333333  13.6335733333333 0.179713333333334  C 13.6205533333333 0.185780000000001  13.6073933333333 0.19152  13.5946533333333 0.19824  C 13.58196 0.204913333333334  13.5696866666667 0.212520000000001  13.55732 0.219846666666667  C 13.545 0.227126666666667  13.5325866666667 0.234126666666667  13.5205 0.24206  C 13.5082733333333 0.250133333333334  13.4965133333333 0.259186666666667  13.4846133333333 0.26796  C 13.4729933333333 0.2765  13.46128 0.284713333333333  13.4500333333333 0.293906666666667  C 13.4385533333333 0.303286666666667  13.4276333333333 0.3136  13.4165266666667 0.323633333333333  C 13.40752 0.331753333333334  13.3980933333333 0.339126666666667  13.3893666666667 0.347713333333334  C 13.38736 0.349673333333334  13.38568 0.351913333333333  13.3836733333333 0.353873333333334  C 13.3817133333333 0.355833333333334  13.3796133333333 0.357420000000001  13.3777 0.35938  L 0.370206666666666 13.62326  C 0.0349999999999993 13.9650933333333  0.0382199999999996 14.51324  0.377346666666666 14.8511066666667  L 4.10853333333333 18.56792  L 4.12309333333333 27.0089866666667  C 4.12393333333333 27.4897933333333  4.51392666666667 27.8791333333333  4.99473333333333 27.8791333333333  L 14 27.8791333333333  L 23.0053133333333 27.8791333333333  C 23.48612 27.8791333333333  23.8761133333333 27.4897466666667  23.8769533333333 27.0089866666667  L 23.8915133333333 18.56792  L 27.6227 14.8511066666667  Z " fill-rule="nonzero" fill="#00c8aa" stroke="none" transform="matrix(1 0 0 1 130 179 )" />
  </g>
</svg>