<?xml version="1.0" encoding="utf-8"?>
<svg version="1.1" xmlns:xlink="http://www.w3.org/1999/xlink" width="28px" height="28px" xmlns="http://www.w3.org/2000/svg">
  <g transform="matrix(1 0 0 1 -171 -46 )">
    <path d="M 14 27.4615384615385  C 9.67978987944218 27.4643643395746  5.62142996844045 25.3908594609436  3.0921153846154 21.8884615384615  L 8.35557692307691 16.625  L 12.1638461538462 20.4319230769231  L 18.3171153846154 14.28  L 20.7307692307692 16.6923076923077  L 20.7307692307692 9.96153846153845  L 14 9.96153846153845  L 16.4136538461539 12.3751923076923  L 12.1638461538462 16.625  L 8.35692307692307 12.8167307692308  L 1.69884615384615 19.4748076923077  C 0.931442376362554 17.7517496319533  0.536044000742265 15.8862215650765  0.538461538461547 14  C 0.538461538461547 6.56519230769231  6.56519230769231 0.538461538461547  14 0.538461538461547  C 21.4348076923077 0.538461538461547  27.4615384615385 6.56519230769231  27.4615384615385 14  C 27.4615384615385 21.4348076923077  21.4348076923077 27.4615384615385  14 27.4615384615385  Z " fill-rule="nonzero" fill="#00c8aa" stroke="none" transform="matrix(1 0 0 1 171 46 )" />
  </g>
</svg>