<?xml version="1.0" encoding="utf-8"?>
<svg version="1.1" xmlns:xlink="http://www.w3.org/1999/xlink" width="17px" height="20px" xmlns="http://www.w3.org/2000/svg">
  <g transform="matrix(1 0 0 1 -320 -10 )">
    <path d="M 3.39 14.5389989864573  C 1.26465823037488 13.0402020342918  0.000500000000000611 10.6018312824496  0.000500000000000611 8.00116419269263  C 0.000500000000000611 3.58288650205325  3.58222200135365 0.00116475038857564  8.0005 0.00116475038857564  C 12.4187779986463 0.00116475038857564  16.0005 3.58288650205325  16.0005 8.00116419269263  C 16.0005 10.6018312824496  14.7363417696251 13.0402020342918  12.611 14.5389989864573  L 14.694 19.2989986546282  C 14.7218175587275 19.3623584747883  14.7361807785669 19.4308026123867  14.7361807785669 19.500000034856  C 14.7361807785669 19.776142390521  14.5123231534823 20  14.2361807785669 20  C 14.2357871852993 20  14.2353935921701 19.999999535253  14.235 20  L 1.765 20  C 1.4881149538589 19.9999991573209  1.2642573287743 19.7761415478419  1.2642573287743 19.4999991921769  C 1.2642573287743 19.4311698494524  1.27846818506374 19.363081756035  1.306 19.2999986545585  L 3.389 14.5389989864573  Z M 11.942 17.9999987451841  L 10.125 13.8459990347677  L 11.457 12.9049991003667  C 13.051807086844 11.7810061085513  14.0005 9.95174808531574  14.0005 8.00065363980936  C 14.0005 4.68694537182982  11.3142084989848 2.00065405808132  8.0005 2.00065405808132  C 4.68679150101524 2.00065405808132  2.0005 4.68694537182982  2.0005 8.00065363980936  C 2.0005 9.95174808531574  2.94919291315599 11.7810061085513  4.544 12.9049991003667  L 5.875 13.8459990347677  L 4.058 17.9999987451841  L 11.942 17.9999987451841  Z M 8 11.9953503015989  C 6.16592574249812 11.9953503015989  4.56658784026617 10.7486204884145  4.119 8.96999937468342  L 6.059 8.48499940849374  C 6.28053280914365 9.37673137724891  7.08116225562124 10.0027970629557  8 10.0027970629557  C 8.91883774437876 10.0027970629557  9.71946719085635 9.37673137724891  9.941 8.48499940849374  L 11.881 8.96999937468342  C 11.4334121597338 10.7486204884145  9.83407425750188 11.9953503015989  8 11.9953503015989  Z " fill-rule="nonzero" fill="#00c8aa" stroke="none" transform="matrix(1 0 0 1 320 10 )" />
  </g>
</svg>