<?xml version="1.0" encoding="utf-8"?>
<svg version="1.1" xmlns:xlink="http://www.w3.org/1999/xlink" width="23px" height="20px" xmlns="http://www.w3.org/2000/svg">
  <g transform="matrix(1 0 0 1 -133 -578 )">
    <path d="M 0 13.34000308931  L 0 6.66000618789718  C 0 6.65852161490795  0 6.65703704162883  0 6.65555246830718  C 0 2.97979233836242  2.97979352075447 0  6.65555510925373 0  C 6.65925931136428 0  6.66296351282892 0  6.66666770977616 0  L 15.5555560026025 0  C 19.2366668668692 0  22.2222222222222 2.99445233264754  22 6.66000618789718  L 22 20  L 6.66666770977616 20  C 2.98555684550945 20  0 17.0055569445597  0 13.34000308931  Z M 6.66666770977616 17.7777788085785  L 20 17.7777788085785  L 20 6.66000618789718  C 19.9938800183713 4.20902783529658  18.0065417533502 2.2246713650726  15.5555560026025 2.22223046862865  L 6.66666770977616 2.22223046862865  C 6.66296326633579 2.22222118241052  6.65925881271147 2.22221653929603  6.6555543576319 2.22221653929603  C 4.20709213090197 2.22221653929603  2.2222213215847 4.20708656100987  2.2222213215847 6.65554781618169  C 2.2222213215847 6.65703394036797  2.22222206884425 6.65852006446249  2.22222356336295 6.66000618789718  L 2.22222356336295 13.34000308931  C 2.22834369400732 15.7909814419107  4.21568195902842 17.7753379121345  6.66666770977616 17.7777788085785  Z M 13.333333929396 11.1111152343143  L 13.333333929396 8.8888940428929  L 15.5555560026025 8.8888940428929  L 15.5555560026025 11.1111152343143  L 13.333333929396 11.1111152343143  Z M 6.66666770977616 11.1111152343143  L 6.66666770977616 8.8888940428929  L 8.88888978298274 8.8888940428929  L 8.88888978298274 11.1111152343143  L 6.66666770977616 11.1111152343143  Z " fill-rule="nonzero" fill="#00c8aa" stroke="none" transform="matrix(1 0 0 1 133 578 )" />
  </g>
</svg>