<?xml version="1.0" encoding="utf-8"?>
<svg version="1.1" xmlns:xlink="http://www.w3.org/1999/xlink" width="24px" height="22px" xmlns="http://www.w3.org/2000/svg">
  <g transform="matrix(1 0 0 1 -35 -9 )">
    <path d="M 20.7272727272727 10.8099173553719  L 20.7272727272727 20.6280991735537  C 20.7272727272727 21.2305916279146  20.2388560907245 21.7190082644628  19.6363636363636 21.7190082644628  L 4.36363636363636 21.7190082644628  C 3.7611439092755 21.7190082644628  3.27272727272727 21.2305916279146  3.27272727272727 20.6280991735537  L 3.27272727272727 10.8099173553719  L 0 10.8099173553719  L 11.2658181818182 0.568462809917355  C 11.68202022143 0.189760964394317  12.3179797785699 0.189760964394317  12.7341818181818 0.568462809917355  L 24 10.8099173553719  L 20.7272727272727 10.8099173553719  Z M 5.45454545454545 19.5371900826446  L 18.5454545454545 19.5371900826446  L 18.5454545454545 8.79937190082644  L 12 2.84955371900826  L 5.45454545454545 8.79937190082644  L 5.45454545454545 19.5371900826446  Z M 15.6643636363636 13.6910082644628  L 12 17.3553719008264  L 8.33563636363636 13.6910082644628  C 7.87531697963486 13.2306888804613  7.61671224247026 12.6063618167046  7.61671224247026 11.9553719008264  C 7.61671224247026 10.5997555775328  8.71565640397905 9.50081141602398  10.0712727272727 9.50081141602398  C 10.7222626431509 9.50081141602398  11.3465897069076 9.75941615318857  11.8069090909091 10.2197355371901  L 12 10.412826446281  L 12.1930909090909 10.2197355371901  C 12.6534102930924 9.75941615318857  13.2777373568491 9.50081141602398  13.9287272727273 9.50081141602398  C 15.284343596021 9.50081141602398  16.3832877575297 10.5997555775328  16.3832877575297 11.9553719008264  C 16.3832877575297 12.6063618167046  16.1246830203651 13.2306888804613  15.6643636363636 13.6910082644628  Z " fill-rule="nonzero" fill="#00c8aa" stroke="none" transform="matrix(1 0 0 1 35 9 )" />
  </g>
</svg>