<?xml version="1.0" encoding="utf-8"?>
<svg version="1.1" xmlns:xlink="http://www.w3.org/1999/xlink" width="22px" height="21px" xmlns="http://www.w3.org/2000/svg">
  <g transform="matrix(1 0 0 1 -131 -10 )">
    <path d="M 0.102666666666664 15.7928571428571  L 3.94323809523809 6.28571428571428  L 3.63419047619047 5.52095238095238  C 3.58379701462556 5.39623712891313  3.55789274967472 5.26298405975311  3.55789274967472 5.12847236858944  C 3.55789274967472 4.70124033908569  3.81732591968498 4.31680993980133  4.21352380952382 4.15695238095238  L 13.9270476190476 0.232571428571429  C 14.4631020334994 0.016313262356551  15.0730196967978 0.27509462295664  15.29 0.810857142857145  L 21.177619047619 15.3811428571429  C 21.228012509184 15.5058581091821  21.2539167741348 15.6391111783421  21.2539167741348 15.7736228695058  C 21.2539167741348 16.2008548990095  20.9944836041246 16.5852852982939  20.5982857142857 16.7451428571429  L 10.8847619047619 20.6695238095238  C 10.7600466527227 20.7199172710887  10.6267935835626 20.7458215360396  10.492281892399 20.7458215360396  C 10.0650498628952 20.7458215360396  9.68061946361087 20.4863883660293  9.52076190476191 20.0901904761905  L 9.42857142857142 19.8628571428571  L 9.42857142857142 19.9047619047619  L 5.23809523809524 19.9047619047619  C 4.65951121446298 19.9047619047619  4.1904761904762 19.4357268807751  4.1904761904762 18.8571428571429  L 4.1904761904762 18.5742857142857  L 0.680952380952391 17.1568571428571  C 0.144615091053709 16.9398778651812  -0.114287939264415 16.3292044132351  0.102666666666664 15.7928571428571  Z M 6.28571428571428 12.0821904761905  L 6.28571428571428 17.8095238095238  L 8.59990476190475 17.8095238095238  L 6.28571428571428 12.0821904761905  Z M 4.1904761904762 16.3512380952381  L 4.1904761904762 11.2681904761905  L 2.43780952380953 15.606380952381  L 4.1904761904762 16.3512380952381  Z M 13.7405714285714 2.56771428571429  L 5.96933333333334 5.70638095238095  L 11.0712380952381 18.334380952381  L 18.8424761904762 15.1946666666667  L 13.7405714285714 2.56771428571429  Z M 9.09019047619049 7.83619047619048  L 9.08914285714286 7.83619047619048  C 8.96446604859239 7.8865316781335  8.83126599707654 7.91240813308035  8.69680952380952 7.91240813308035  C 8.11807899232249 7.91240813308035  7.64892520025299 7.44325434101085  7.64892520025299 6.86452380952381  C 7.64892520025299 6.4372803295603  7.90830817965775 6.05281932081024  8.30447619047618 5.89285714285714  C 8.42930449012078 5.84238747992806  8.5626882767277 5.81644325641494  8.69733333333335 5.81644325641494  C 9.27617223940959 5.81644325641494  9.74541388644221 6.28568490344756  9.74541388644221 6.86452380952381  C 9.74541388644221 7.29167025983691  9.48619435807063 7.67608108998556  9.09019047619049 7.83619047619048  Z " fill-rule="nonzero" fill="#00c8aa" stroke="none" transform="matrix(1 0 0 1 131 10 )" />
  </g>
</svg>